<svg width="17" height="15" viewBox="0 0 17 15" fill="none" xmlns="http://www.w3.org/2000/svg">
<path d="M1.19209e-07 6.92308C1.19209e-07 3.105 3.81253 0 8.5 0C13.1875 0 17 3.105 17 6.92308C17 10.7412 13.1875 13.8462 8.5 13.8462C7.62393 13.8462 6.749 13.7331 5.89673 13.5092L3.0872 14.94C3.0056 14.9804 2.91947 15 2.83333 15C2.69393 15 2.5568 14.9481 2.44913 14.8477C2.27687 14.685 2.2202 14.4312 2.30747 14.2085L3.077 12.2481C1.14127 10.9408 1.19209e-07 8.98038 1.19209e-07 6.92308Z" fill="#3A1D1D"/>
</svg>
